<svg id="Layer_1" data-name="Layer 1" xmlns="http://www.w3.org/2000/svg" viewBox="0 0 20 20"><defs><style>.cls-1{fill:#fff;}</style></defs><title>Artboard 2</title><path class="cls-1" d="M5.64,14.59a.78.78,0,1,0,.78.78A.78.78,0,0,0,5.64,14.59Z"/><path class="cls-1" d="M13.64,14.59a.78.78,0,1,0,.78.78A.78.78,0,0,0,13.64,14.59Z"/><path class="cls-1" d="M14.25,12.38a.41.41,0,0,0,.36-.21l2.83-5.08a.4.4,0,0,0,0-.41.41.41,0,0,0-.36-.21H5.52V4.26a.41.41,0,0,0-.41-.41H2.93a.41.41,0,0,0-.42.41.42.42,0,0,0,.42.42H4.69v8.9a.41.41,0,0,0,.42.41h9.31a.41.41,0,0,0,.42-.41.42.42,0,0,0-.42-.42H5.52v-.78ZM14,11.55H5.52V7.3H16.37Z"/></svg>