<svg xmlns="http://www.w3.org/2000/svg" viewBox="0 0 160 160"><defs><style>.cls-1{fill:#fff;}</style></defs><title>Small Logo (Dark)</title><g id="Layer_1" data-name="Layer 1"><path class="cls-1" d="M80.54,11.06A71.07,71.07,0,1,0,151.6,82.12,71.15,71.15,0,0,0,80.54,11.06Zm0,4A67.16,67.16,0,0,1,146,67.73a20.92,20.92,0,0,1-3.06-2c-1-.78-2-1.65-3.05-2.61-.56-.51-1.15-1-1.78-1.58l-.27-.22a25.68,25.68,0,0,0-4.44-2.77,30.15,30.15,0,0,1-2.86-1.65,9.41,9.41,0,0,1-2.27-2.09,14.18,14.18,0,0,1-1.37-2.32c-.18-.34-.35-.7-.52-1.06-.34-.72-.69-1.46-1.1-2.2a11.87,11.87,0,0,0-.73-1.15,16.26,16.26,0,0,0-5.18-4.42l-.82-.5a33.5,33.5,0,0,1-3-2A8.11,8.11,0,0,1,113,38l-1-2.24-2,1.41c-2.86,2-5.59,4.26-8.24,6.48l-1.34,1.12q-2,1.65-4,3.3c-1.88,1.53-3.81,3-5.8,4.41-.62.43-1.24.85-1.87,1.26-1.63,1-3.34,2.1-5.16,3.15s-4.07,2.29-6.32,3.47a12.37,12.37,0,0,0-1.5,1,23.73,23.73,0,0,0-2.2,1.9C72,64.68,71,65.54,69.47,65.55a12,12,0,0,0-3.14-.86c-.7-.08-1.36-.09-2-.11a15.05,15.05,0,0,1-1.7-.09,5.78,5.78,0,0,1-3-1.75A32.11,32.11,0,0,1,57,59.58c-.61-.78-1.24-1.58-1.88-2.28L53.89,56l-1.46,1c-.11.08-11.51,8.19-19,11-5.82,2.15-15,7.54-19.81,10.48A67.15,67.15,0,0,1,80.54,15.06Zm0,134.13a67.41,67.41,0,0,1-8.46-.55c-1-.29-2-.59-2.9-.93a50.32,50.32,0,0,1-8.72-3.91,26,26,0,0,1-7.12-5.88A20,20,0,0,1,49.21,130a14.87,14.87,0,0,1,.57-8.58A21.16,21.16,0,0,1,54.61,114a25.26,25.26,0,0,1,3.47-3c1.29-.87,2.58-1.76,4-2.53a64.87,64.87,0,0,1,8.53-4.19c3-1.24,6-2.31,9.06-3.4s6.16-2.16,9.24-3.33c1.54-.57,3.08-1.2,4.61-1.82s3-1.34,4.52-2.11,3-1.57,4.41-2.38,2.85-1.76,4.19-2.8a18.7,18.7,0,0,0,6.54-7.93,9.67,9.67,0,0,0,.54-5.27,9,9,0,0,0-2.43-4.6,15.07,15.07,0,0,0-8.91-4.15,17.26,17.26,0,0,1,4.48,1.84,12.58,12.58,0,0,1,3.6,3,7.59,7.59,0,0,1,.92,8.39,16.75,16.75,0,0,1-6.25,6.57c-1.31.87-2.73,1.62-4.1,2.42s-2.83,1.45-4.31,2.07c-5.85,2.57-12,4.47-18.27,6.5-3.12,1-6.23,2.11-9.32,3.36A68.51,68.51,0,0,0,60,105c-1.48.83-2.87,1.81-4.26,2.78a28.58,28.58,0,0,0-3.95,3.43,24.27,24.27,0,0,0-5.61,8.93,18.46,18.46,0,0,0-.38,10.69A21.8,21.8,0,0,0,51,140a27.91,27.91,0,0,0,6.1,5A67.15,67.15,0,0,1,13.5,83.21c3.36-2.09,14.78-9.08,21.26-11.48s15-8,18.48-10.4l.57.72c2.18,2.76,4.64,5.89,8.27,6.4a16.53,16.53,0,0,0,2.18.13c.56,0,1.09,0,1.59.08a8.63,8.63,0,0,1,3.66,1.43l.31.2a13.22,13.22,0,0,1,1.42.82l1.5,1,3,2,.54.38c1.81,1.26,3.61,2.54,5.36,3.9-1-1.33-2-2.62-3-3.9L77.1,72.66a4.5,4.5,0,0,1-.8-2.57,7.37,7.37,0,0,1,1.85-4.41A15.94,15.94,0,0,1,81,62.92h0c1-.55,2-1.1,3-1.65,2.51-1.41,4.84-2.8,7-4.21.1-.07.21-.13.31-.21,2.11-1.37,4.13-2.86,6.08-4.41S101,49.5,102.74,48l.29-.24c1.66-1.4,3.35-2.81,5.07-4.18.81-.66,1.64-1.3,2.47-1.92a1.84,1.84,0,0,0,.17.22,10.85,10.85,0,0,0,1.56,1.7c.26.24.53.47.82.69a34.7,34.7,0,0,0,3.4,2.23c.84.5,1.63,1,2.35,1.5a9.12,9.12,0,0,1,2.94,3.08c.24.43.46.87.67,1.33l.32.66a24,24,0,0,0,2.08,3.75c.07.1.14.21.22.31a15,15,0,0,0,5,4.11l1.41.76a21.06,21.06,0,0,1,4,2.48l.12.1,1.2,1.07.42.38a43.54,43.54,0,0,0,5,4,24.39,24.39,0,0,0,4.66,2.47,67,67,0,0,1-66.37,76.63Z"/><path class="cls-1" d="M79.88,36.71l0,0,0,0a5,5,0,0,1-2.45,5.95h0s0,0,0,0h0a5,5,0,0,1,5.95,2.45h0a5,5,0,0,1,2.45-6l0,0,0,0A5,5,0,0,1,79.88,36.71Z"/><path class="cls-1" d="M35.25,59.57h0s0,0,0,0A6.18,6.18,0,0,1,43,57.89s0,0,0,0a6.19,6.19,0,0,1-1.69-7.73l0,0,0,0a6.18,6.18,0,0,1-7.73,1.68l0,0,0,0A6.19,6.19,0,0,1,35.25,59.57Z"/><path class="cls-1" d="M93.48,34.56h0A3.79,3.79,0,0,1,96,30.38h0a3.8,3.8,0,0,1-4.19-2.48v0a3.81,3.81,0,0,1-2.47,4.19h0A3.8,3.8,0,0,1,93.48,34.56Z"/><path class="cls-1" d="M61.61,33.37h0a3.1,3.1,0,0,1,.33-4h0a3.1,3.1,0,0,1-4-.33l0,0v0a3.11,3.11,0,0,1-.33,4l0,0,0,0A3.11,3.11,0,0,1,61.61,33.37Z"/><path class="cls-1" d="M99.9,33.33l0,0a3.12,3.12,0,0,1-.33,4l0,0h0a3.11,3.11,0,0,1,4,.33h0a3.11,3.11,0,0,1,.33-4h0a3.11,3.11,0,0,1-4-.33Z"/><path class="cls-1" d="M51.18,46.54v0a2.19,2.19,0,0,1-2.64.92h0a2.19,2.19,0,0,1,.92,2.64h0a2.2,2.2,0,0,1,2.65-.93h0A2.18,2.18,0,0,1,51.18,46.54Z"/><path class="cls-1" d="M65.68,56.47h0a2.19,2.19,0,0,1,2.64-.92h0a2.19,2.19,0,0,1-.92-2.64h0a2.19,2.19,0,0,1-2.64.93h0A2.19,2.19,0,0,1,65.68,56.47Z"/><path class="cls-1" d="M128.56,43h0a2.19,2.19,0,0,1,.87-2.66h0a2.19,2.19,0,0,1-2.66-.88h0a2.19,2.19,0,0,1-.87,2.66h0A2.19,2.19,0,0,1,128.56,43Z"/><path class="cls-1" d="M117.48,39.44h0a2.19,2.19,0,0,1,2.64-.92h0a2.19,2.19,0,0,1-.92-2.64v0a2.19,2.19,0,0,1-2.64.92h0A2.19,2.19,0,0,1,117.48,39.44Z"/><path class="cls-1" d="M71.87,41h0a2.32,2.32,0,0,1-1-2.8v0a2.32,2.32,0,0,1-2.8,1h0a2.32,2.32,0,0,1,1,2.8h0A2.34,2.34,0,0,1,71.87,41Z"/><path class="cls-1" d="M28.33,55.44h0A2.5,2.5,0,0,1,31,53.62h0A2.51,2.51,0,0,1,29.15,51v0a2.53,2.53,0,0,1-2.64,1.83h0A2.51,2.51,0,0,1,28.33,55.44Z"/><path class="cls-1" d="M29,61.49h0a2.52,2.52,0,0,1,1.83,2.65h0a2.52,2.52,0,0,1,2.65-1.83h0a2.52,2.52,0,0,1-1.83-2.65v0A2.52,2.52,0,0,1,29,61.49Z"/><path class="cls-1" d="M59.13,48.36h0a5.62,5.62,0,0,1,5.08-5.08s0,0,0,0a5.63,5.63,0,0,1-5.08-5.09v0a5.63,5.63,0,0,1-5.08,5.09h0A5.62,5.62,0,0,1,59.13,48.36Z"/><path class="cls-1" d="M74,35.5h0a7.11,7.11,0,0,1,6.43-6.42h0A7.13,7.13,0,0,1,74,22.65v0a7.09,7.09,0,0,1-6.41,6.41h0A7.09,7.09,0,0,1,74,35.5Z"/><path class="cls-1" d="M89.87,42.21h0a2.26,2.26,0,0,1,2.73-1h0a2.27,2.27,0,0,1-1-2.74h0a2.27,2.27,0,0,1-2.74,1h0A2.25,2.25,0,0,1,89.87,42.21Z"/><path class="cls-1" d="M98.77,27.1h0a2.41,2.41,0,0,1,1.16-2.84h0A2.38,2.38,0,0,1,97.1,23.1v0a2.4,2.4,0,0,1-1.16,2.84h0A2.39,2.39,0,0,1,98.77,27.1Z"/><path class="cls-1" d="M107.18,32.78h0a4.56,4.56,0,0,1,5.49-1.93h0a4.54,4.54,0,0,1-1.93-5.49v0l0,0a4.56,4.56,0,0,1-5.49,1.93l0,0,0,0A4.56,4.56,0,0,1,107.18,32.78Z"/><path class="cls-1" d="M81.47,26.32h0A4.54,4.54,0,0,1,87,24.4h0A4.53,4.53,0,0,1,85,18.9v0l0,0a4.56,4.56,0,0,1-5.49,1.93l0,0,0,0A4.56,4.56,0,0,1,81.47,26.32Z"/><path class="cls-1" d="M48.29,37.1h0a4.56,4.56,0,0,1,5.49-1.93h0a4.57,4.57,0,0,1-1.93-5.5l0,0,0,0a4.54,4.54,0,0,1-5.49,1.93h0l0,0A4.54,4.54,0,0,1,48.29,37.1Z"/><path class="cls-1" d="M76.06,45.73l0,0,0,0A5.36,5.36,0,0,1,69.57,48h0l0,0a5.38,5.38,0,0,1,2.28,6.49h0a0,0,0,0,0,0,0,5.38,5.38,0,0,1,6.49-2.29s0,0,0,0A5.4,5.4,0,0,1,76.06,45.73Z"/><path class="cls-1" d="M40.48,47h0a4.56,4.56,0,0,1,3-5h0a4.55,4.55,0,0,1-5-3l0,0v0a4.55,4.55,0,0,1-3,5h0A4.56,4.56,0,0,1,40.48,47Z"/><path class="cls-1" d="M132.63,53.52h0a2.93,2.93,0,0,1,2-3.18h0a2.92,2.92,0,0,1-3.18-1.94v0a2.89,2.89,0,0,1-1.94,3.17h0A2.91,2.91,0,0,1,132.63,53.52Z"/><path class="cls-1" d="M21,64.66h0a3.46,3.46,0,0,1,4.41.42h0a3.49,3.49,0,0,1,.42-4.42l0,0,0,0a3.49,3.49,0,0,1-4.42-.42l0,0,0,0A3.47,3.47,0,0,1,21,64.66Z"/></g></svg>