<svg xmlns="http://www.w3.org/2000/svg" viewBox="0 0 160 160"><defs><style>.cls-1{fill:#163f4c;}</style></defs><title>Small Logo</title><g id="Layer_1" data-name="Layer 1"><path class="cls-1" d="M80.54,8.84A71.07,71.07,0,1,0,151.6,79.91,71.15,71.15,0,0,0,80.54,8.84Zm0,4A67.17,67.17,0,0,1,146,65.52a20.92,20.92,0,0,1-3.06-2c-1-.78-2-1.65-3.05-2.61-.56-.51-1.15-1-1.78-1.58l-.27-.22a25.68,25.68,0,0,0-4.44-2.77,30.15,30.15,0,0,1-2.86-1.65,9.41,9.41,0,0,1-2.27-2.09,14.18,14.18,0,0,1-1.37-2.32c-.18-.34-.35-.7-.52-1.06-.34-.72-.69-1.46-1.1-2.2a11.87,11.87,0,0,0-.73-1.15,16.26,16.26,0,0,0-5.18-4.42l-.82-.5a33.5,33.5,0,0,1-3-2A8.11,8.11,0,0,1,113,35.75l-1-2.24-2,1.41c-2.86,2-5.59,4.26-8.24,6.48l-1.34,1.12q-2,1.65-4,3.3c-1.88,1.53-3.81,3-5.8,4.41-.62.43-1.24.85-1.87,1.26-1.63,1-3.34,2.1-5.16,3.15s-4.07,2.29-6.32,3.47a12.37,12.37,0,0,0-1.5,1,23.73,23.73,0,0,0-2.2,1.9C72,62.47,71,63.33,69.47,63.34a12,12,0,0,0-3.14-.86c-.7-.08-1.36-.09-2-.11a15.05,15.05,0,0,1-1.7-.09,5.78,5.78,0,0,1-3-1.75A32.11,32.11,0,0,1,57,57.37c-.61-.78-1.24-1.58-1.88-2.28l-1.19-1.33-1.46,1c-.11.08-11.51,8.19-19,11-5.82,2.15-15,7.54-19.81,10.48A67.16,67.16,0,0,1,80.54,12.84Zm0,134.14a67.41,67.41,0,0,1-8.46-.55c-1-.29-2-.59-2.9-.93a50.32,50.32,0,0,1-8.72-3.91,26.18,26.18,0,0,1-7.12-5.88,20,20,0,0,1-4.13-7.91,14.87,14.87,0,0,1,.57-8.58,21.16,21.16,0,0,1,4.83-7.46,24.58,24.58,0,0,1,3.47-3c1.29-.87,2.58-1.77,4-2.53a64.87,64.87,0,0,1,8.53-4.19c3-1.24,6-2.31,9.06-3.4s6.16-2.16,9.24-3.33c1.54-.57,3.08-1.2,4.61-1.82s3-1.34,4.52-2.11,3-1.57,4.41-2.38,2.85-1.76,4.19-2.8a18.7,18.7,0,0,0,6.54-7.93,9.7,9.7,0,0,0,.54-5.28,9,9,0,0,0-2.43-4.59,15.07,15.07,0,0,0-8.91-4.15,17.26,17.26,0,0,1,4.48,1.84,12.58,12.58,0,0,1,3.6,3,7.58,7.58,0,0,1,.92,8.39,16.66,16.66,0,0,1-6.25,6.56c-1.31.88-2.73,1.63-4.1,2.43S98.16,88,96.68,88.62c-5.85,2.57-12,4.46-18.27,6.49-3.12,1-6.23,2.12-9.32,3.37A68.51,68.51,0,0,0,60,102.83c-1.48.83-2.87,1.81-4.26,2.78A28.58,28.58,0,0,0,51.81,109,24.27,24.27,0,0,0,46.2,118a18.46,18.46,0,0,0-.38,10.69A21.8,21.8,0,0,0,51,137.77a28.2,28.2,0,0,0,6.1,5A67.15,67.15,0,0,1,13.5,81c3.36-2.1,14.78-9.09,21.26-11.48s15-8,18.48-10.4l.57.72c2.18,2.76,4.64,5.89,8.27,6.4a16.53,16.53,0,0,0,2.18.13c.56,0,1.09,0,1.59.08a8.63,8.63,0,0,1,3.66,1.43l.31.2a13.22,13.22,0,0,1,1.42.82l1.5,1,3,2,.54.38c1.81,1.26,3.61,2.54,5.36,3.9-1-1.33-2-2.62-3-3.9L77.1,70.45a4.5,4.5,0,0,1-.8-2.57,7.37,7.37,0,0,1,1.85-4.41A15.94,15.94,0,0,1,81,60.71h0c1-.55,2-1.1,3-1.65,2.51-1.41,4.84-2.8,7-4.21.1-.07.21-.13.31-.21,2.11-1.37,4.13-2.86,6.08-4.41s3.61-2.94,5.36-4.41l.29-.24c1.66-1.4,3.35-2.81,5.07-4.18.81-.66,1.64-1.3,2.47-1.92a1.84,1.84,0,0,0,.17.22,10.85,10.85,0,0,0,1.56,1.7c.26.24.53.47.82.69a34.7,34.7,0,0,0,3.4,2.23c.84.5,1.63,1,2.35,1.5a9.12,9.12,0,0,1,2.94,3.08c.24.43.46.87.67,1.33l.32.66a24,24,0,0,0,2.08,3.75c.07.1.14.21.22.31a15,15,0,0,0,5,4.11l1.41.76a21.06,21.06,0,0,1,4,2.48l.12.1,1.2,1.07.42.38a43.54,43.54,0,0,0,5,4,25,25,0,0,0,4.66,2.47A67,67,0,0,1,80.54,147Z"/><path class="cls-1" d="M79.88,34.5l0,0,0,0a5,5,0,0,1-2.45,5.94h0a5,5,0,0,1,5.95,2.45h0A5,5,0,0,1,85.83,37l0,0,0,0A5,5,0,0,1,79.88,34.5Z"/><path class="cls-1" d="M35.25,57.36h0s0,0,0,0A6.18,6.18,0,0,1,43,55.68s0,0,0,0a6.2,6.2,0,0,1-1.69-7.73l0,0,0,0a6.18,6.18,0,0,1-7.73,1.69l0,0,0,0A6.19,6.19,0,0,1,35.25,57.36Z"/><path class="cls-1" d="M93.48,32.35h0A3.81,3.81,0,0,1,96,28.16h0a3.8,3.8,0,0,1-4.19-2.48v0a3.81,3.81,0,0,1-2.47,4.19h0A3.79,3.79,0,0,1,93.48,32.35Z"/><path class="cls-1" d="M61.61,31.16h0a3.12,3.12,0,0,1,.33-4h0a3.1,3.1,0,0,1-4-.33l0,0v0a3.11,3.11,0,0,1-.33,4h0A3.11,3.11,0,0,1,61.61,31.16Z"/><path class="cls-1" d="M99.9,31.12l0,0a3.12,3.12,0,0,1-.33,4l0,0,0,0a3.12,3.12,0,0,1,4,.33h0a3.11,3.11,0,0,1,.33-4h0a3.11,3.11,0,0,1-4-.33Z"/><path class="cls-1" d="M51.18,44.33v0a2.19,2.19,0,0,1-2.64.92h0a2.19,2.19,0,0,1,.92,2.64h0A2.2,2.2,0,0,1,52.11,47h0A2.19,2.19,0,0,1,51.18,44.33Z"/><path class="cls-1" d="M65.68,54.26h0a2.19,2.19,0,0,1,2.64-.92h0a2.19,2.19,0,0,1-.92-2.64h0a2.19,2.19,0,0,1-2.64.93h0A2.19,2.19,0,0,1,65.68,54.26Z"/><path class="cls-1" d="M128.56,40.81h0a2.19,2.19,0,0,1,.87-2.66h0a2.19,2.19,0,0,1-2.66-.87h0a2.19,2.19,0,0,1-.87,2.66h0A2.19,2.19,0,0,1,128.56,40.81Z"/><path class="cls-1" d="M117.48,37.23h0a2.19,2.19,0,0,1,2.64-.93h0a2.19,2.19,0,0,1-.92-2.64v0a2.19,2.19,0,0,1-2.64.92h0A2.19,2.19,0,0,1,117.48,37.23Z"/><path class="cls-1" d="M71.87,38.81h0a2.32,2.32,0,0,1-1-2.8v0h0a2.32,2.32,0,0,1-2.8,1h0a2.32,2.32,0,0,1,1,2.8h0A2.33,2.33,0,0,1,71.87,38.81Z"/><path class="cls-1" d="M28.33,53.23h0A2.52,2.52,0,0,1,31,51.4h0a2.52,2.52,0,0,1-1.83-2.64v0a2.52,2.52,0,0,1-2.64,1.82h0A2.51,2.51,0,0,1,28.33,53.23Z"/><path class="cls-1" d="M29,59.28h0a2.52,2.52,0,0,1,1.83,2.65h0A2.52,2.52,0,0,1,33.5,60.1h0a2.5,2.5,0,0,1-1.83-2.64v0A2.52,2.52,0,0,1,29,59.28Z"/><path class="cls-1" d="M59.13,46.15h0a5.63,5.63,0,0,1,5.08-5.09h0A5.63,5.63,0,0,1,59.14,36v0a5.63,5.63,0,0,1-5.08,5.09h0A5.62,5.62,0,0,1,59.13,46.15Z"/><path class="cls-1" d="M74,33.29h0a7.13,7.13,0,0,1,6.43-6.43h0A7.11,7.11,0,0,1,74,20.44v0a7.09,7.09,0,0,1-6.41,6.41h0A7.11,7.11,0,0,1,74,33.29Z"/><path class="cls-1" d="M89.87,40h0a2.26,2.26,0,0,1,2.73-1h0a2.27,2.27,0,0,1-1-2.74h0a2.27,2.27,0,0,1-2.74,1h0A2.25,2.25,0,0,1,89.87,40Z"/><path class="cls-1" d="M98.77,24.89h0a2.41,2.41,0,0,1,1.16-2.84h0a2.38,2.38,0,0,1-2.83-1.16v0a2.4,2.4,0,0,1-1.16,2.84h0A2.39,2.39,0,0,1,98.77,24.89Z"/><path class="cls-1" d="M107.18,30.57h0a4.56,4.56,0,0,1,5.49-1.93h0a4.54,4.54,0,0,1-1.93-5.49v0l0,0a4.54,4.54,0,0,1-5.49,1.92h0l0,0A4.56,4.56,0,0,1,107.18,30.57Z"/><path class="cls-1" d="M81.47,24.11h0A4.54,4.54,0,0,1,87,22.19h0A4.54,4.54,0,0,1,85,16.69v0l0,0a4.56,4.56,0,0,1-5.49,1.93l0,0,0,0A4.56,4.56,0,0,1,81.47,24.11Z"/><path class="cls-1" d="M48.29,34.89h0A4.56,4.56,0,0,1,53.79,33h0a4.55,4.55,0,0,1-1.93-5.49l0,0,0,0a4.55,4.55,0,0,1-5.49,1.93h0l0,0A4.54,4.54,0,0,1,48.29,34.89Z"/><path class="cls-1" d="M76.06,43.52l0,0,0,0a5.36,5.36,0,0,1-6.48,2.28h0l0,0a5.38,5.38,0,0,1,2.28,6.49h0s0,0,0,0A5.39,5.39,0,0,1,78.34,50h0A5.41,5.41,0,0,1,76.06,43.52Z"/><path class="cls-1" d="M40.48,44.8h0a4.56,4.56,0,0,1,3-5h0a4.56,4.56,0,0,1-5-3l0,0v0a4.55,4.55,0,0,1-3,5h0A4.55,4.55,0,0,1,40.48,44.8Z"/><path class="cls-1" d="M132.63,51.31h0a2.92,2.92,0,0,1,2-3.18h0a2.92,2.92,0,0,1-3.18-2v0a2.9,2.9,0,0,1-1.94,3.17h0A2.9,2.9,0,0,1,132.63,51.31Z"/><path class="cls-1" d="M21,62.45h0a3.46,3.46,0,0,1,4.41.42h0a3.48,3.48,0,0,1,.42-4.42l0,0,0,0A3.49,3.49,0,0,1,21.41,58l0,0,0,0A3.47,3.47,0,0,1,21,62.45Z"/></g></svg>